<?xml version="1.0" encoding="utf-8"?>
<!-- Generator: Moho 12.5 build 22438 -->
<!DOCTYPE svg PUBLIC "-//W3C//DTD SVG 1.1//EN" "http://www.w3.org/Graphics/SVG/1.1/DTD/svg11.dtd">
<svg version="1.1" id="Frame_1" xmlns="http://www.w3.org/2000/svg" xmlns:xlink="http://www.w3.org/1999/xlink" width="1280px" height="720px">
<g id="Logo_centos.svg">
<path fill="#f2f2f2" fill-rule="evenodd" stroke="#292929" stroke-width="15" stroke-linecap="round" stroke-linejoin="round" d="M 280.000 359.999 C 280.037 359.964 639.964 4.888 640.000 4.853 C 640.036 4.888 999.964 359.964 1000.000 359.999 C 999.964 360.035 640.036 715.111 640.000 715.147 C 639.964 715.111 280.037 360.035 280.000 359.999 Z"/>
<path fill="#292929" fill-rule="evenodd" stroke="none" d="M 362.797 82.795 C 362.852 82.796 913.412 86.532 913.467 86.533 C 913.467 86.588 917.204 637.149 917.204 637.203 C 917.149 637.203 366.588 633.466 366.533 633.466 C 366.533 633.411 362.797 82.851 362.797 82.795 Z"/>
<path fill="#f2f2f2" fill-rule="evenodd" stroke="none" d="M 385.442 105.441 C 385.493 105.442 891.076 108.873 891.126 108.873 C 891.127 108.923 894.558 614.508 894.559 614.558 C 894.508 614.558 388.925 611.127 388.874 611.126 C 388.874 611.076 385.442 105.492 385.442 105.441 Z"/>
<path fill="#292929" fill-rule="evenodd" stroke="none" d="M 422.127 142.125 C 422.170 142.126 854.894 145.062 854.937 145.063 C 854.937 145.106 857.874 577.830 857.874 577.874 C 857.831 577.873 425.107 574.937 425.063 574.937 C 425.063 574.893 422.127 142.169 422.127 142.125 Z"/>
<path fill="#292929" fill-rule="evenodd" stroke="none" d="M 894.753 351.460 C 894.749 351.460 855.430 351.460 855.427 351.460 C 855.427 351.458 855.427 334.498 855.427 334.495 C 855.430 334.495 894.749 334.495 894.753 334.495 C 894.753 334.498 894.753 351.458 894.753 351.460 Z"/>
<path fill="#292929" fill-rule="evenodd" stroke="none" d="M 424.639 351.460 C 424.635 351.460 385.316 351.460 385.313 351.460 C 385.313 351.458 385.313 334.498 385.313 334.495 C 385.316 334.495 424.635 334.495 424.639 334.495 C 424.639 334.498 424.639 351.458 424.639 351.460 Z"/>
<path fill="#292929" fill-rule="evenodd" stroke="none" d="M 631.551 616.607 C 631.551 616.603 631.551 577.284 631.551 577.280 C 631.552 577.280 648.513 577.280 648.514 577.280 C 648.514 577.284 648.514 616.603 648.514 616.607 C 648.513 616.607 631.552 616.607 631.551 616.607 Z"/>
<path fill="#292929" fill-rule="evenodd" stroke="none" d="M 631.551 146.493 C 631.551 146.488 631.551 107.171 631.551 107.166 C 631.552 107.166 648.513 107.166 648.514 107.166 C 648.514 107.171 648.514 146.488 648.514 146.493 C 648.513 146.493 631.552 146.493 631.551 146.493 Z"/>
</g>
<g id="logotipo-de-windows.png_(Trazada)">
<path fill="#f2f2f2" fill-rule="evenodd" stroke="none" d="M 762.608 378.921 C 762.870 375.400 761.044 372.923 757.263 373.184 C 755.307 373.314 748.526 376.182 746.310 377.095 C 739.399 379.442 732.228 381.790 725.187 383.354 C 723.100 383.745 720.884 383.615 718.928 383.745 C 703.412 385.831 695.849 385.179 680.594 383.745 C 675.769 383.093 663.513 379.963 658.688 378.399 C 656.080 377.616 650.343 376.574 647.996 378.399 C 646.692 379.181 645.910 382.832 645.388 384.397 C 643.563 389.873 642.259 395.480 640.694 400.826 C 639.129 406.433 637.174 411.779 635.609 417.255 C 631.652 431.338 627.697 445.420 623.743 459.501 C 622.049 465.630 619.962 471.497 618.398 477.495 C 618.006 479.842 616.964 482.189 618.398 484.536 C 619.571 486.883 627.003 488.579 629.741 489.100 C 639.651 491.186 652.429 494.576 662.599 494.707 C 669.249 494.838 676.160 494.837 682.940 494.707 C 691.937 494.707 708.757 490.926 717.363 487.797 C 721.406 486.232 731.315 483.623 733.401 479.842 C 734.314 478.278 734.184 476.582 734.705 475.018 C 736.661 468.890 738.486 462.631 740.312 456.372 C 744.003 443.334 747.698 430.295 751.395 417.255 C 751.917 415.169 753.091 413.213 753.612 410.996 C 754.916 406.433 755.829 401.478 757.393 396.914 C 758.436 393.785 759.219 390.786 760.132 387.526 C 760.914 384.788 762.348 382.050 762.608 378.921 M 572.631 361.057 C 568.458 360.927 564.025 360.666 560.113 361.057 C 549.030 363.013 538.468 365.490 528.037 369.141 C 525.169 370.184 518.127 372.140 516.172 374.096 C 513.303 377.095 511.999 386.613 510.435 390.656 C 508.218 396.392 507.175 402.130 505.480 407.867 C 502.351 418.559 499.482 429.512 496.092 439.943 C 493.614 447.506 491.398 455.199 489.311 462.631 C 488.529 465.369 488.529 466.803 487.486 469.672 C 486.443 472.541 484.357 479.190 486.834 481.538 C 489.311 483.754 492.441 482.580 495.179 481.538 C 501.698 479.060 507.827 476.322 514.737 474.757 C 527.124 471.758 537.816 470.454 550.725 470.454 C 557.506 470.585 565.068 472.019 571.848 473.062 C 573.804 473.323 582.149 475.279 584.366 475.800 C 589.190 477.104 591.276 478.669 596.883 478.278 C 598.187 478.278 599.361 478.147 600.404 477.235 C 601.968 475.670 604.315 465.369 605.098 462.631 C 609.661 446.202 615.008 429.903 619.440 413.344 C 622.049 403.695 625.047 394.046 627.785 384.397 C 628.568 381.398 631.175 375.139 630.002 372.010 C 628.568 368.228 617.746 366.794 614.095 365.881 C 610.314 364.969 606.793 364.447 603.142 363.796 C 596.883 362.622 590.624 361.057 584.366 361.057 C 580.453 361.059 576.541 361.059 572.631 361.057 M 798.596 252.182 C 798.727 248.401 798.857 243.445 793.250 244.880 C 791.034 245.532 787.643 247.227 785.427 248.139 C 781.906 249.444 777.995 250.748 774.474 251.790 C 761.565 255.702 747.875 257.006 734.575 256.876 C 725.447 256.876 710.714 253.877 701.717 251.921 C 697.023 250.878 693.241 248.792 688.417 249.183 C 683.592 249.443 684.114 251.660 682.810 255.311 C 680.854 261.048 679.420 266.785 677.986 272.522 C 677.464 274.609 676.551 276.174 675.899 277.999 C 675.248 279.824 675.117 281.780 674.595 283.475 C 674.074 285.692 673.031 287.647 672.510 289.734 C 668.467 304.207 664.686 318.550 660.383 332.763 C 658.819 337.978 656.472 343.976 655.428 349.192 C 655.298 351.017 654.646 353.886 655.428 355.450 C 656.601 359.102 666.772 360.536 670.423 361.318 C 680.202 363.665 690.633 366.403 700.934 366.403 C 707.191 366.405 713.449 366.405 719.710 366.403 C 731.185 366.403 746.310 362.100 757.263 358.319 C 760.131 357.146 766.911 355.450 768.998 353.364 C 771.867 350.365 773.170 340.846 774.735 336.674 C 776.821 331.067 777.995 325.330 779.690 319.463 C 783.080 307.988 786.470 296.644 789.990 285.040 C 791.555 280.215 792.468 275.130 794.033 270.175 C 795.597 264.830 798.596 257.789 798.596 252.182 M 610.183 232.754 C 605.749 232.623 601.186 232.363 596.883 232.754 C 591.928 233.797 586.713 234.318 582.018 235.361 C 576.803 236.535 571.326 238.622 566.372 240.316 C 562.460 241.490 555.941 243.315 553.072 246.054 C 550.594 248.661 548.509 259.353 547.204 263.134 C 543.684 274.609 540.164 286.213 537.034 297.557 C 535.730 301.991 534.948 306.685 533.514 310.857 C 530.253 321.027 527.777 331.329 524.517 341.368 C 523.604 344.498 521.127 349.974 523.604 352.973 C 526.081 355.450 529.080 354.146 531.949 352.973 C 537.556 350.756 543.945 348.279 549.943 346.845 C 565.981 343.193 581.106 340.717 597.665 343.194 C 605.489 344.367 613.312 345.671 621.136 347.366 C 625.699 348.409 630.263 350.756 635.087 349.974 C 638.607 349.322 638.608 346.714 639.651 343.716 C 641.476 338.108 642.781 332.241 644.606 326.504 C 650.604 307.076 655.950 287.518 661.426 267.828 C 662.991 262.091 665.077 256.484 666.511 250.617 C 666.902 248.530 668.076 245.923 667.294 243.706 C 665.860 239.795 655.428 238.621 651.647 237.578 C 642.259 235.231 630.654 232.754 621.136 232.754 C 617.483 232.757 613.833 232.757 610.183 232.754 Z"/>
</g>
</svg>
