<?xml version="1.0" encoding="utf-8"?>
<!-- Generator: Moho 12.5 build 22438 -->
<!DOCTYPE svg PUBLIC "-//W3C//DTD SVG 1.1//EN" "http://www.w3.org/Graphics/SVG/1.1/DTD/svg11.dtd">
<svg version="1.1" id="Frame_1" xmlns="http://www.w3.org/2000/svg" xmlns:xlink="http://www.w3.org/1999/xlink" width="1080px" height="1080px">
<g id="Logo_centos.svg">
<path fill="#f2f2f2" fill-rule="evenodd" stroke="#292929" stroke-width="22" stroke-linecap="round" stroke-linejoin="round" d="M 19.949 539.999 C 20.002 539.948 539.948 27.011 540.000 26.960 C 540.052 27.011 1059.999 539.948 1060.051 539.999 C 1059.999 540.051 540.052 1052.988 540.000 1053.040 C 539.948 1052.988 20.002 540.051 19.949 539.999 Z"/>
<path fill="#292929" fill-rule="evenodd" stroke="none" d="M 139.556 139.554 C 139.636 139.555 934.967 144.953 935.046 144.954 C 935.046 145.033 940.445 940.365 940.445 940.444 C 940.365 940.444 145.033 935.046 144.954 935.046 C 144.954 934.966 139.556 139.634 139.556 139.554 Z"/>
<path fill="#f2f2f2" fill-rule="evenodd" stroke="none" d="M 172.269 172.267 C 172.343 172.268 902.701 177.225 902.774 177.225 C 902.775 177.298 907.731 907.658 907.732 907.731 C 907.658 907.731 177.300 902.775 177.227 902.774 C 177.227 902.701 172.269 172.341 172.269 172.267 Z"/>
<path fill="#292929" fill-rule="evenodd" stroke="none" d="M 225.264 225.262 C 225.326 225.263 850.432 229.504 850.495 229.505 C 850.495 229.567 854.737 854.674 854.737 854.737 C 854.675 854.736 229.569 850.494 229.506 850.494 C 229.506 850.431 225.264 225.325 225.264 225.262 Z"/>
<path fill="#292929" fill-rule="evenodd" stroke="none" d="M 908.012 527.663 C 908.007 527.663 851.207 527.663 851.202 527.663 C 851.202 527.661 851.202 503.160 851.202 503.156 C 851.207 503.156 908.007 503.156 908.012 503.156 C 908.012 503.160 908.012 527.661 908.012 527.663 Z"/>
<path fill="#292929" fill-rule="evenodd" stroke="none" d="M 228.892 527.663 C 228.887 527.663 172.087 527.663 172.082 527.663 C 172.082 527.661 172.082 503.160 172.082 503.156 C 172.087 503.156 228.887 503.156 228.892 503.156 C 228.892 503.160 228.892 527.661 228.892 527.663 Z"/>
<path fill="#292929" fill-rule="evenodd" stroke="none" d="M 527.794 910.691 C 527.794 910.685 527.794 853.886 527.794 853.880 C 527.796 853.880 552.298 853.880 552.300 853.880 C 552.300 853.886 552.300 910.685 552.300 910.691 C 552.298 910.691 527.796 910.691 527.794 910.691 Z"/>
<path fill="#292929" fill-rule="evenodd" stroke="none" d="M 527.794 231.570 C 527.794 231.564 527.794 174.766 527.794 174.760 C 527.796 174.760 552.298 174.760 552.300 174.760 C 552.300 174.766 552.300 231.564 552.300 231.570 C 552.298 231.570 527.796 231.570 527.794 231.570 Z"/>
</g>
<g id="logotipo-de-windows.png_(Trazada)">
<path fill="#f2f2f2" fill-rule="evenodd" stroke="none" d="M 717.118 567.333 C 717.496 562.247 714.858 558.668 709.396 559.045 C 706.570 559.233 696.775 563.377 693.574 564.695 C 683.591 568.086 673.231 571.477 663.060 573.737 C 660.045 574.302 656.844 574.114 654.018 574.302 C 631.604 577.315 620.679 576.374 598.641 574.302 C 591.671 573.360 573.966 568.839 566.996 566.579 C 563.229 565.448 554.941 563.942 551.551 566.579 C 549.668 567.709 548.537 572.983 547.783 575.243 C 545.147 583.154 543.263 591.254 541.003 598.977 C 538.742 607.077 535.917 614.799 533.657 622.710 C 527.941 643.054 522.227 663.397 516.516 683.738 C 514.068 692.591 511.054 701.067 508.793 709.732 C 508.228 713.123 506.722 716.513 508.793 719.904 C 510.489 723.294 521.225 725.743 525.181 726.495 C 539.496 729.509 557.955 734.407 572.647 734.596 C 582.253 734.784 592.236 734.784 602.031 734.596 C 615.028 734.596 639.326 729.134 651.758 724.613 C 657.597 722.353 671.912 718.585 674.926 713.122 C 676.245 710.862 676.056 708.413 676.810 706.153 C 679.635 697.300 682.272 688.259 684.909 679.218 C 690.242 660.383 695.579 641.547 700.920 622.710 C 701.674 619.696 703.369 616.870 704.122 613.669 C 706.006 607.077 707.324 599.918 709.585 593.326 C 711.091 588.805 712.221 584.473 713.540 579.764 C 714.670 575.809 716.742 571.853 717.118 567.333 M 442.679 541.528 C 436.652 541.339 430.247 540.962 424.596 541.528 C 408.586 544.353 393.329 547.931 378.260 553.206 C 374.116 554.712 363.945 557.537 361.119 560.362 C 356.976 564.695 355.092 578.445 352.832 584.285 C 349.630 592.572 348.122 600.861 345.674 609.148 C 341.154 624.594 337.010 640.416 332.112 655.485 C 328.533 666.410 325.331 677.522 322.317 688.259 C 321.187 692.214 321.187 694.286 319.681 698.430 C 318.173 702.575 315.160 712.181 318.738 715.571 C 322.317 718.773 326.838 717.078 330.794 715.571 C 340.211 711.992 349.065 708.037 359.047 705.777 C 376.941 701.445 392.387 699.561 411.034 699.561 C 420.830 699.750 431.754 701.821 441.549 703.328 C 444.374 703.705 456.430 706.530 459.631 707.283 C 466.601 709.167 469.614 711.427 477.714 710.862 C 479.598 710.862 481.293 710.673 482.800 709.356 C 485.060 707.095 488.450 692.215 489.580 688.259 C 496.172 664.526 503.896 640.981 510.300 617.059 C 514.068 603.121 518.399 589.182 522.355 575.243 C 523.485 570.911 527.252 561.870 525.557 557.350 C 523.485 551.886 507.852 549.815 502.577 548.496 C 497.115 547.178 492.030 546.425 486.755 545.483 C 477.714 543.788 468.673 541.528 459.631 541.528 C 453.979 541.530 448.328 541.530 442.679 541.528 M 769.106 384.247 C 769.294 378.785 769.483 371.627 761.383 373.699 C 758.181 374.641 753.284 377.090 750.082 378.408 C 744.996 380.292 739.345 382.175 734.259 383.682 C 715.612 389.332 695.834 391.217 676.622 391.028 C 663.436 391.028 642.152 386.696 629.155 383.871 C 622.374 382.363 616.912 379.350 609.942 379.915 C 602.973 380.292 603.726 383.493 601.842 388.768 C 599.017 397.055 596.946 405.344 594.874 413.631 C 594.120 416.645 592.801 418.905 591.860 421.542 C 590.918 424.179 590.730 427.004 589.976 429.454 C 589.223 432.655 587.715 435.480 586.963 438.494 C 581.123 459.402 575.661 480.122 569.446 500.653 C 567.185 508.188 563.795 516.852 562.287 524.386 C 562.099 527.023 561.157 531.167 562.287 533.428 C 563.982 538.702 578.674 540.774 583.949 541.904 C 598.076 545.295 613.144 549.250 628.025 549.250 C 637.063 549.252 646.104 549.252 655.148 549.250 C 671.724 549.250 693.574 543.034 709.396 537.572 C 713.540 535.877 723.334 533.427 726.348 530.413 C 730.493 526.081 732.375 512.331 734.636 506.304 C 737.650 498.204 739.345 489.917 741.794 481.440 C 746.691 464.865 751.588 448.477 756.674 431.714 C 758.934 424.744 760.253 417.398 762.513 410.240 C 764.774 402.518 769.105 392.347 769.106 384.247 M 496.927 356.182 C 490.522 355.993 483.930 355.617 477.714 356.182 C 470.556 357.688 463.022 358.442 456.241 359.949 C 448.706 361.644 440.795 364.658 433.638 367.106 C 427.987 368.802 418.569 371.439 414.425 375.395 C 410.846 379.161 407.833 394.607 405.949 400.069 C 400.863 416.645 395.778 433.409 391.257 449.796 C 389.373 456.201 388.243 462.981 386.171 469.008 C 381.462 483.701 377.884 498.582 373.175 513.085 C 371.856 517.606 368.278 525.516 371.856 529.848 C 375.435 533.427 379.767 531.544 383.911 529.848 C 392.011 526.647 401.240 523.067 409.904 520.996 C 433.073 515.721 454.922 512.144 478.844 515.722 C 490.145 517.417 501.447 519.301 512.749 521.750 C 519.341 523.256 525.934 526.647 532.903 525.517 C 537.988 524.575 537.988 520.807 539.496 516.476 C 542.133 508.376 544.017 499.899 546.653 491.612 C 555.318 463.547 563.041 435.293 570.952 406.850 C 573.212 398.563 576.226 390.463 578.298 381.986 C 578.863 378.972 580.558 375.206 579.428 372.004 C 577.357 366.353 562.287 364.658 556.825 363.150 C 543.263 359.760 526.499 356.182 512.749 356.182 C 507.473 356.186 502.199 356.186 496.927 356.182 Z"/>
</g>
</svg>
